<svg viewBox="0 0 1024 1024" xmlns="http://www.w3.org/2000/svg">
  <g>
    <path d="M454.556,329.894C461.481,328.982 554.568,310.771 656.298,354.97C673.203,362.315 776.678,407.273 826.137,510.658C828.616,515.839 782.212,596.227 705.256,643.106C480.886,779.785 254.817,638.802 197.911,513.341C196.12,509.394 217.367,477.341 222.919,469.795C313.685,346.435 447.44,331.228 454.556,329.894ZM745.369,571.373C749.441,567.152 779.321,536.179 790.164,513.345C791.435,510.669 769.916,472.256 724.162,432.899C681.451,396.161 619.053,371.784 626.847,378.187C635.82,385.557 688.505,428.834 688.69,509.498C688.926,612.929 610.616,654.717 629.483,646.423C689.109,620.213 702.653,611.599 745.369,571.373ZM544.581,653.874C555.759,650.757 627.569,630.734 651.051,555.352C691.374,425.905 546.642,318.364 435.804,387.976C303.235,471.234 374.167,685.434 544.581,653.874ZM341.999,463.627C366.489,388.623 396.738,384.559 397.423,377.494C397.59,375.764 292.707,409.838 233.867,510.67C232.563,512.904 244.576,531.744 260.985,552.092C315.036,619.117 402.493,651.171 397.135,645.739C380.383,628.757 315.639,578.729 341.999,463.627Z" fill="#6366F1"/>
    <path d="M199.906,469.339C202.242,458.483 217.699,306.741 378.59,227.683C553.842,141.567 781.295,248.229 820.738,451.454C824.216,469.376 823.764,471.193 822.856,470.007C822.776,469.901 819.65,463.419 809.034,449.874C789.59,425.067 778.623,417.311 777.084,413.679C681.294,187.549 427.046,186.353 305.028,320.084C249.504,380.939 262.45,398.51 237.2,424.218C211.845,450.033 202.74,469.481 199.906,469.339Z" fill="#6366F1"/>
    <path d="M550.556,792.92C728.711,765.628 775.234,611.601 780.831,605.822C812.241,573.39 810.176,571.924 822.614,554.642C826.705,548.957 817.032,593.295 810.51,611.504C718.769,867.654 392.371,898.392 249.914,685.221C208.926,623.888 202.007,564.912 201.15,560.559C197.47,541.855 206.148,563.226 217.999,578.092C235.493,600.035 240.462,596.589 251.5,622.5C280.802,691.28 373.849,813.051 550.556,792.92Z" fill="#6366F1"/>
    <path d="M482.417,628.914C391.403,603.551 390.82,516.995 391.032,514.454C391.232,512.05 511.132,395.06 512.434,395.697C513.872,396.401 548.354,430.454 548.446,430.557C552.928,435.584 550.82,428.785 551.152,419.448C551.165,419.072 551.186,417.276 580.492,417.783C583.89,417.842 582.289,419.947 582.831,462.487C582.88,466.32 615.145,494.506 632.293,512.647C639.23,519.986 614.128,654.22 482.417,628.914Z" fill="#6366F1"/>
    <path d="M493.498,523.101C489.704,523.987 490.357,525.654 490.402,577.5C490.411,588.049 485.066,583.381 474.5,583.388C452.43,583.402 442.837,584.156 442.822,581.477C442.418,509.31 440.355,508.147 444.834,503.842C510.88,440.373 511.044,437.309 513.451,439.561C519.056,444.805 580.812,502.583 581.179,507.518C581.226,508.155 581.202,581.358 581.198,581.474C581.11,584.102 574.187,583.307 539.5,583.394C529.551,583.419 533.73,578.534 533.727,568.5C533.714,524.717 533.727,524.775 533.65,524.461C533.185,522.58 526.761,523.103 493.498,523.101Z" fill="#ffffff"/>
  </g>
</svg>